<?xml version="1.0" encoding="utf-8"?>
<!-- Generator: Adobe Illustrator 26.5.0, SVG Export Plug-In . SVG Version: 6.00 Build 0)  -->
<svg version="1.1" id="Layer_13" xmlns="http://www.w3.org/2000/svg" xmlns:xlink="http://www.w3.org/1999/xlink" x="0px" y="0px"
	 viewBox="0 0 856 855" style="enable-background:new 0 0 856 855;" xml:space="preserve">
<style type="text/css">
	.st0{opacity:0.85;fill:#85C0BD;enable-background:new    ;}
	.st1{opacity:0.85;fill:#00A29B;enable-background:new    ;}
	.st2{opacity:0.68;fill:#00A29B;enable-background:new    ;}
	.st3{fill:#ACD1CF;}
</style>
<g>
	<polygon class="st0" points="630,756.9 806.4,756.9 513.7,246.9 425.1,400.2 	"/>
	<polygon class="st1" points="49.7,756.9 219.1,756.9 513.7,246.9 425.7,99.9 	"/>
	<path class="st2" d="M276.7,656.9l85-148h102.9c23.1,0,16.1-16,11.1-25l-134-238.5l85-148l185,315.6c0,0-15-26.3,0,0
		c53,92.9-24,243.9-132,243.9H276.7L276.7,656.9z"/>
	<polygon class="st3" points="175.7,657.3 195.6,657.3 277.9,508.9 254.1,508.9 170.6,657.3 	"/>
	<polygon class="st3" points="369.7,657.3 389.6,657.3 471.9,508.9 448.1,508.9 364.6,657.3 	"/>
	<polygon class="st3" points="321.7,657.3 341.6,657.3 423.9,508.9 400.1,508.9 316.6,657.3 	"/>
	<polygon class="st3" points="224.7,657.3 244.6,657.3 326.9,508.9 303.1,508.9 219.6,657.3 	"/>
	<polygon class="st3" points="273.7,657.3 293.6,657.3 375.9,508.9 352.1,508.9 268.6,657.3 	"/>
</g>
</svg>
